<?xml version="1.0" encoding="iso-8859-1"?>
<svg height="512pt" viewBox="0 0 511 512" width="512pt" xmlns="http://www.w3.org/2000/svg"><path d="m436.175781 433.386719c40.453125-43.695313 65.1875-102.148438 65.1875-166.390625 0-135.308594-109.691406-245-245-245-135.3125 0-245.003906 109.691406-245.003906 245 0 6.847656.296875 13.617187.84375 20.320312zm0 0" fill="#fecf2b"/><path d="m263.554688 50.8125c5.167968 0 10.300781.140625 15.398437.410156v-22.929687h-30.792969v22.929687c5.097656-.269531 10.230469-.410156 15.394532-.410156zm0 0" fill="#1d3260"/><path d="m295.804688 15.277344c0-8.4375-6.894532-15.277344-15.398438-15.277344h-33.699219c-8.503906 0-15.398437 6.839844-15.398437 15.277344 0 8.441406 6.894531 15.28125 15.398437 15.28125h33.699219c8.503906 0 15.398438-6.839844 15.398438-15.28125zm0 0" fill="#36527a"/><path d="m74.609375 431.285156c37.257813 41.191406 88.316406 69.648438 145.886719 78.09375h71.730468c57.417969-8.421875 108.367188-36.75 145.597657-77.769531v-314.960937h-363.214844zm0 0" fill="#0f89cb"/><path d="m142.609375 158.84375c0-23.304688 18.894531-42.195312 42.195313-42.195312h-110.195313v314.636718c19.300781 21.335938 42.308594 39.246094 68 52.738282zm0 0" fill="#1075bb"/><path d="m445.328125 90.976562c-48-26.101562-123.175781-40.953124-181.773437-40.953124-58.59375 0-133.769532 14.851562-181.769532 40.953124zm0 0" fill="#deeefa"/><path d="m172.46875 59.917969c-33.472656 6.984375-65.746094 17.496093-90.683594 31.058593h91.535156c-12.847656-5.191406-14.039062-24.863281-.851562-31.058593zm0 0" fill="#b8dcf2"/><path d="m445.164062 120.402344h-363.214843c-8.503907 0-15.394531-6.839844-15.394531-15.28125 0-8.4375 6.890624-15.277344 15.394531-15.277344h363.214843c8.503907 0 15.398438 6.839844 15.398438 15.277344 0 8.441406-6.894531 15.28125-15.398438 15.28125zm0 0" fill="#0cb0ea"/><path d="m154.222656 105.121094c0-8.4375 6.890625-15.277344 15.394532-15.277344h-87.667969c-8.503907 0-15.394531 6.839844-15.394531 15.277344 0 8.441406 6.890624 15.28125 15.394531 15.28125h87.667969c-8.503907 0-15.394532-6.839844-15.394532-15.28125zm0 0" fill="#0d9cda"/><path d="m71.402344 196.746094c6.582031 0 11.921875-5.296875 11.921875-11.832032v-13.9375c0-18.542968-12.546875-35.023437-30.507813-40.078124-6.332031-1.78125-12.921875 1.871093-14.71875 8.15625-1.796875 6.285156 1.882813 12.828124 8.214844 14.609374 7.753906 2.179688 13.167969 9.300782 13.167969 17.3125v13.9375c0 6.53125 5.335937 11.832032 11.921875 11.832032zm0 0" fill="#deeefa"/><path d="m41.296875 156.429688h-25.402344c-8.503906 0-15.394531-6.839844-15.394531-15.277344s6.890625-15.28125 15.394531-15.28125h25.402344c8.503906 0 15.394531 6.84375 15.394531 15.28125s-6.890625 15.277344-15.394531 15.277344zm0 0" fill="#36527a"/><path d="m441.460938 196.746094c6.582031 0 11.921874-5.296875 11.921874-11.832032v-13.9375c0-8.011718 5.414063-15.132812 13.164063-17.3125 6.335937-1.78125 10.015625-8.324218 8.21875-14.609374-1.796875-6.285157-8.386719-9.929688-14.722656-8.15625-17.960938 5.054687-30.503907 21.535156-30.503907 40.078124v13.9375c0 6.53125 5.335938 11.832032 11.921876 11.832032zm0 0" fill="#deeefa"/><path d="m471.566406 156.429688h25.398438c8.503906 0 15.398437-6.839844 15.398437-15.277344s-6.894531-15.28125-15.398437-15.28125h-25.398438c-8.503906 0-15.398437 6.84375-15.398437 15.28125.003906 8.4375 6.894531 15.277344 15.398437 15.277344zm0 0" fill="#36527a"/><path d="m192.175781 250.863281c5.628907 0 11.214844.15625 16.769531.445313v-24.96875h-33.535156v24.96875c5.554688-.289063 11.140625-.445313 16.765625-.445313zm0 0" fill="#1d3260"/><path d="m227.296875 212.164062c0-9.1875-7.507813-16.636718-16.765625-16.636718h-36.703125c-9.261719 0-16.769531 7.449218-16.769531 16.636718 0 9.191407 7.507812 16.640626 16.769531 16.640626h36.703125c9.257812 0 16.765625-7.449219 16.765625-16.640626zm0 0" fill="#36527a"/><path d="m256.363281 512c41.796875 0 81.144531-10.476562 115.574219-28.933594v-166.132812h-355.476562c23.058593 111.363281 121.703124 195.066406 239.902343 195.066406zm0 0" fill="#0d9cda"/><path d="m113.546875 343.894531c0-14.890625 12.070313-26.960937 26.964844-26.960937h-124.050781c12.660156 61.152344 48.117187 113.957031 97.085937 149.148437zm0 0" fill="#0f89cb"/><path d="m360.808594 286.386719c-44.53125-24.210938-114.273438-37.988281-168.628906-37.988281-54.359376 0-124.101563 13.777343-168.628907 37.988281zm0 0" fill="#deeefa"/><path d="m138.765625 252.226562c-41.507813 5.652344-84.398437 17.40625-115.214844 34.160157h117.707031c-21.316406 0-23.542968-31.203125-2.492187-34.160157zm0 0" fill="#b8dcf2"/><path d="m371.9375 284.886719h-359.515625c-.136719 0-.269531.015625-.40625.019531.816406 11.320312 2.410156 22.417969 4.710937 33.257812h355.210938c9.257812 0 16.765625-7.449218 16.765625-16.636718 0-9.191406-7.507813-16.640625-16.765625-16.640625zm0 0" fill="#4ecdf9"/><path d="m116.347656 301.527344c0-9.191406 7.507813-16.640625 16.765625-16.640625h-120.691406c-.136719 0-.269531.015625-.40625.019531.816406 11.320312 2.410156 22.417969 4.710937 33.257812h116.390626c-9.261719 0-16.769532-7.449218-16.769532-16.636718zm0 0" fill="#0cb0ea"/><path d="m375.664062 400.589844c6.769532 0 12.257813-5.445313 12.257813-12.164063v-15.179687c0-9.046875 6.113281-17.082032 14.867187-19.546875 6.511719-1.832031 10.296876-8.558594 8.449219-15.023438-1.847656-6.464843-8.628906-10.214843-15.140625-8.386719-19.25 5.417969-32.695312 23.082032-32.695312 42.957032v15.179687c0 6.71875 5.488281 12.164063 12.261718 12.164063zm0 0" fill="#deeefa"/><path d="m408.8125 357.40625h27.660156c9.261719 0 16.769532-7.453125 16.769532-16.640625 0-9.191406-7.507813-16.640625-16.769532-16.640625h-27.660156c-9.261719 0-16.769531 7.449219-16.769531 16.640625 0 9.1875 7.507812 16.640625 16.769531 16.640625zm0 0" fill="#36527a"/><g fill="#284270"><path d="m256.808594 15.277344c0-8.4375 6.894531-15.277344 15.398437-15.277344h-25.5c-8.503906 0-15.398437 6.839844-15.398437 15.277344 0 8.441406 6.894531 15.28125 15.398437 15.28125h25.5c-8.503906 0-15.398437-6.839844-15.398437-15.28125zm0 0"/><path d="m26 141.152344c0-8.421875 6.867188-15.25 15.347656-15.277344-.019531 0-.035156 0-.050781 0h-25.402344c-8.503906 0-15.394531 6.839844-15.394531 15.277344s6.894531 15.28125 15.394531 15.28125h25.402344c.015625 0 .03125-.003906.046875-.003906-8.476562-.027344-15.34375-6.855469-15.34375-15.277344zm0 0"/><path d="m481.671875 141.152344c0-8.421875 6.863281-15.25 15.34375-15.277344-.015625 0-.03125 0-.046875 0h-25.402344c-8.503906 0-15.394531 6.839844-15.394531 15.277344s6.890625 15.28125 15.394531 15.28125h25.402344c.015625 0 .03125-.003906.046875-.003906-8.480469-.027344-15.34375-6.855469-15.34375-15.277344zm0 0"/><path d="m182.558594 212.164062c0-9.1875 7.507812-16.636718 16.769531-16.636718h-25.5c-9.261719 0-16.769531 7.449218-16.769531 16.636718 0 9.191407 7.507812 16.640626 16.769531 16.640626h25.5c-9.261719 0-16.769531-7.449219-16.769531-16.640626zm0 0"/><path d="m417.542969 340.765625c0-9.191406 7.507812-16.640625 16.769531-16.640625h-25.5c-9.261719 0-16.769531 7.449219-16.769531 16.640625 0 9.1875 7.507812 16.636719 16.769531 16.636719h25.5c-9.261719 0-16.769531-7.449219-16.769531-16.636719zm0 0"/></g><path d="m340.199219 459.433594c0 28.785156-23.335938 52.117187-52.117188 52.117187s-52.117187-23.332031-52.117187-52.117187c0-28.78125 23.335937-52.113282 52.117187-52.113282s52.117188 23.332032 52.117188 52.113282zm0 0" fill="#f94862"/><path d="m277.835938 459.433594c0-24.257813 9.917968-44.644532 23.34375-50.453125-4.183594-1.082031-8.574219-1.660157-13.097657-1.660157-28.78125 0-52.113281 23.332032-52.113281 52.113282 0 28.785156 23.332031 52.117187 52.113281 52.117187 4.523438 0 8.914063-.578125 13.097657-1.660156-13.425782-5.8125-23.34375-26.195313-23.34375-50.457031zm0 0" fill="#ed3346"/><path d="m293.246094 445.683594c0 5.867187-4.757813 10.625-10.625 10.625-5.867188 0-10.625-4.757813-10.625-10.625 0-5.867188 4.757812-10.625 10.625-10.625 5.867187 0 10.625 4.757812 10.625 10.625zm0 0" fill="#ed3346"/><path d="m284.179688 460.113281c0 4.308594-3.492188 7.800781-7.800782 7.800781-4.3125 0-7.804687-3.492187-7.804687-7.800781 0-4.3125 3.492187-7.804687 7.804687-7.804687 4.308594 0 7.800782 3.492187 7.800782 7.804687zm0 0" fill="#ed3346"/><path d="m297.914062 483.316406c0 3.042969-2.464843 5.507813-5.507812 5.507813s-5.507812-2.464844-5.507812-5.507813c0-3.042968 2.464843-5.507812 5.507812-5.507812s5.507812 2.464844 5.507812 5.507812zm0 0" fill="#ed3346"/><path d="m287.21875 406.996094c.101562.085937.1875.183594.269531.28125.085938-.097656.171875-.195313.273438-.28125 2.535156-2.164063 5.179687-3.554688 7.855469-4.335938 1.378906-13.632812 7.628906-21.574218 12.980468-25.949218 3.796875-3.105469 4.355469-8.695313 1.253906-12.488282-3.101562-3.792968-8.691406-4.355468-12.484374-1.253906-6.78125 5.542969-17.765626 17.730469-19.53125 39.304688 3.195312.660156 6.367187 2.148437 9.382812 4.722656zm0 0" fill="#b4e234"/><path d="m179.167969 461.800781h-15.667969c35.398438-83.546875 56.066406-151.609375 64.160156-180.324219 2.191406-7.769531 10.710938-11.828124 18.128906-8.640624 6.777344 2.910156 9.914063 10.765624 7 17.546874zm0 0" fill="#b4e234"/><path d="m208.828125 385.121094c-10.515625 1.726562-11.929687-8.621094-11.929687-8.621094-9.183594 25.496094-20.277344 54.335938-33.398438 85.300781h15.667969l32.632812-75.976562c-.835937-.601563-1.894531-.882813-2.972656-.703125zm0 0" fill="#7fbc0a"/><path d="m195.582031 461.800781h-16.414062l62.765625-146.136719c2.910156-6.777343 10.765625-9.914062 17.546875-7.003906 7.414062 3.1875 10.339843 12.160156 6.210937 19.097656-12.914062 21.71875-40.089844 69.414063-70.109375 134.042969zm0 0" fill="#7fbc0a"/><path d="m229.101562 393.734375c-10.8125 3.097656-14.570312-2.121094-15.878906-6.003906-.269531-.796875-.78125-1.445313-1.425781-1.90625l-32.632813 75.976562h16.417969c11.851563-25.519531 23.257813-48.386719 33.519531-68.066406zm0 0" fill="#79ad05"/><path d="m265.445312 459.433594h-90.199218c-3.980469 0-7.050782 3.527344-6.484375 7.46875 2.222656 15.496094 11.269531 28.785156 23.992187 36.742187 12.144532 3.253907 24.65625 5.605469 37.46875 6.964844 21.660156-4.15625 38.550782-21.710937 41.707032-43.707031.566406-3.941406-2.503907-7.46875-6.484376-7.46875zm0 0" fill="#ffdd71"/><path d="m213.328125 459.433594h-90.199219c-3.980468 0-7.050781 3.527344-6.484375 7.46875.074219.515625.167969 1.027344.257813 1.535156 23.367187 16.210938 49.679687 28.46875 77.984375 35.78125 13.214843-7.882812 22.648437-21.441406 24.925781-37.316406.566406-3.941406-2.503906-7.46875-6.484375-7.46875zm0 0" fill="#fecf2b"/><path d="m150.640625 466.902344c-.566406-3.941406 2.507813-7.46875 6.484375-7.46875h-33.996094c-3.980468 0-7.050781 3.527344-6.484375 7.46875.074219.515625.167969 1.027344.257813 1.535156 14.261718 9.898438 29.632812 18.308594 45.875 25.035156-6.351563-7.355468-10.691406-16.492187-12.136719-26.570312zm0 0" fill="#fabd2b"/><path d="m287.21875 405.8125c-12.203125-10.421875-26.996094-3.078125-35.273438 5.203125-4.058593 4.054687-7.960937 6.636719-10.960937 8.234375-1.96875 1.050781-1.683594 3.945312.441406 4.628906 28.1875 9.054688 42.414063-8.828125 46.25-14.792968.675781-1.054688.496094-2.457032-.457031-3.273438zm0 0" fill="#7fbc0a"/><path d="m287.761719 405.8125c12.203125-10.421875 26.996093-3.078125 35.273437 5.203125 4.058594 4.054687 7.960938 6.636719 10.960938 8.234375 1.96875 1.050781 1.683594 3.945312-.441406 4.628906-28.1875 9.054688-42.414063-8.828125-46.25-14.792968-.675782-1.054688-.496094-2.457032.457031-3.273438zm0 0" fill="#7fbc0a"/></svg>